pose18
version=1
nRows=4
nColumns=213
inDegrees=yes
endheader
time	platform_rx	platform_ry	platform_rz	platform_ty	pelvis_tilt	pelvis_list	pelvis_rotation	pelvis_tx	pelvis_ty	pelvis_tz	hip_flexion_r	hip_adduction_r	hip_rotation_r	knee_angle_r	knee_angle_r_beta	ankle_angle_r	subtalar_angle_r	mtp_angle_r	hip_flexion_l	hip_adduction_l	hip_rotation_l	knee_angle_l	knee_angle_l_beta	ankle_angle_l	subtalar_angle_l	mtp_angle_l	lumbar_extension	lumbar_bending	lumbar_rotation	arm_flex_r	arm_add_r	arm_rot_r	elbow_flex_r	pro_sup_r	wrist_flex_r	wrist_dev_r	arm_flex_l	arm_add_l	arm_rot_l	elbow_flex_l	pro_sup_l	wrist_flex_l	wrist_dev_l	platform_rx_u	platform_ry_u	platform_rz_u	platform_ty_u	pelvis_tilt_u	pelvis_list_u	pelvis_rotation_u	pelvis_tx_u	pelvis_ty_u	pelvis_tz_u	hip_flexion_r_u	hip_adduction_r_u	hip_rotation_r_u	knee_angle_r_u	knee_angle_r_beta_u	ankle_angle_r_u	subtalar_angle_r_u	mtp_angle_r_u	hip_flexion_l_u	hip_adduction_l_u	hip_rotation_l_u	knee_angle_l_u	knee_angle_l_beta_u	ankle_angle_l_u	subtalar_angle_l_u	mtp_angle_l_u	lumbar_extension_u	lumbar_bending_u	lumbar_rotation_u	arm_flex_r_u	arm_add_r_u	arm_rot_r_u	elbow_flex_r_u	pro_sup_r_u	wrist_flex_r_u	wrist_dev_r_u	arm_flex_l_u	arm_add_l_u	arm_rot_l_u	elbow_flex_l_u	pro_sup_l_u	wrist_flex_l_u	wrist_dev_l_u	addbrev_r.activation	addlong_r.activation	addlong_r.fiber_length	addmagDist_r.activation	addmagIsch_r.activation	addmagIsch_r.fiber_length	addmagMid_r.activation	addmagProx_r.activation	bflh_r.activation	bflh_r.fiber_length	bfsh_r.activation	edl_r.activation	edl_r.fiber_length	ehl_r.activation	ehl_r.fiber_length	fdl_r.activation	fdl_r.fiber_length	fhl_r.activation	fhl_r.fiber_length	gaslat_r.activation	gaslat_r.fiber_length	gasmed_r.activation	gasmed_r.fiber_length	glmax1_r.activation	glmax2_r.activation	glmax3_r.activation	glmed1_r.activation	glmed2_r.activation	glmed3_r.activation	glmin1_r.activation	glmin2_r.activation	glmin3_r.activation	glmin3_r.fiber_length	grac_r.activation	iliacus_r.activation	perbrev_r.activation	perbrev_r.fiber_length	perlong_r.activation	perlong_r.fiber_length	piri_r.activation	piri_r.fiber_length	psoas_r.activation	recfem_r.activation	recfem_r.fiber_length	sart_r.activation	semimem_r.activation	semimem_r.fiber_length	semiten_r.activation	semiten_r.fiber_length	soleus_r.activation	soleus_r.fiber_length	tfl_r.activation	tfl_r.fiber_length	tibant_r.activation	tibant_r.fiber_length	tibpost_r.activation	tibpost_r.fiber_length	vasint_r.activation	vasint_r.fiber_length	vaslat_r.activation	vaslat_r.fiber_length	vasmed_r.activation	vasmed_r.fiber_length	addbrev_l.activation	addlong_l.activation	addlong_l.fiber_length	addmagDist_l.activation	addmagIsch_l.activation	addmagIsch_l.fiber_length	addmagMid_l.activation	addmagProx_l.activation	bflh_l.activation	bflh_l.fiber_length	bfsh_l.activation	edl_l.activation	edl_l.fiber_length	ehl_l.activation	ehl_l.fiber_length	fdl_l.activation	fdl_l.fiber_length	fhl_l.activation	fhl_l.fiber_length	gaslat_l.activation	gaslat_l.fiber_length	gasmed_l.activation	gasmed_l.fiber_length	glmax1_l.activation	glmax2_l.activation	glmax3_l.activation	glmed1_l.activation	glmed2_l.activation	glmed3_l.activation	glmin1_l.activation	glmin2_l.activation	glmin3_l.activation	glmin3_l.fiber_length	grac_l.activation	iliacus_l.activation	perbrev_l.activation	perbrev_l.fiber_length	perlong_l.activation	perlong_l.fiber_length	piri_l.activation	piri_l.fiber_length	psoas_l.activation	recfem_l.activation	recfem_l.fiber_length	sart_l.activation	semimem_l.activation	semimem_l.fiber_length	semiten_l.activation	semiten_l.fiber_length	soleus_l.activation	soleus_l.fiber_length	tfl_l.activation	tfl_l.fiber_length	tibant_l.activation	tibant_l.fiber_length	tibpost_l.activation	tibpost_l.fiber_length	vasint_l.activation	vasint_l.fiber_length	vaslat_l.activation	vaslat_l.fiber_length	vasmed_l.activation	vasmed_l.fiber_length
      0.00000000	     20.00000000	      0.00000000	      0.00000000	      0.25000000	    -26.67999897	      0.00000000	     -0.00000000	     -0.03600000	      0.61700000	      0.00000000	     92.99998931	    -18.06298207	     -3.63599997	     92.99997930	     92.99997930	     27.99998646	      0.00000014	      0.00000000	     92.99999032	    -18.06297873	     -3.63599995	     92.99997901	     92.99997901	     27.99998583	      0.00000000	      0.00000000	      0.00000000	      0.00000000	      0.00000000	     89.98888749	     -0.00002608	     89.84109293	      0.14207604	      0.14203779	      0.00000000	      0.00000000	     89.99038739	     -0.00002389	     89.83303924	      0.14207604	      0.14203779	      0.00000000	      0.00000000	      0.00000000	      0.00000000	      0.00000000	      0.00000000	      0.00000000	      0.00000000	      0.00000000	      0.00000000	      0.00000000	      0.00000000	      0.00000000	      0.00000000	      0.00000000	      0.00000000	      0.00000000	      0.00000000	      0.00000000	      0.00000000	      0.00000000	      0.00000000	      0.00000000	      0.00000000	      0.00000000	      0.00000000	      0.00000000	      0.00000000	      0.00000000	      0.00000000	      0.00000000	      0.00000000	      0.00000000	      0.00000000	      0.00000000	      0.00000000	      0.00000000	      0.00000000	      0.00000000	      0.00000000	      0.00000000	      0.00000000	      0.00000000	      0.00000000	      0.00000000	      0.01000000	      0.01000000	      0.09909457	      0.01000000	      0.01000000	      0.21847203	      0.01000000	      0.01000000	      0.01000000	      0.12306214	      0.01000000	      0.01000000	      0.05190346	      0.01000000	      0.05939429	      0.01000000	      0.04758840	      0.01000000	      0.05618553	      0.01000000	      0.05398843	      0.01000000	      0.04241102	      0.01000000	      0.01000000	      0.01000000	      0.01000000	      0.01000000	      0.01000000	      0.01000000	      0.01000000	      0.01000000	      0.04534204	      0.01000000	      0.01000000	      0.01000000	      0.05072310	      0.01000000	      0.05738398	      0.01000000	      0.03271112	      0.01000000	      0.01000000	      0.05259359	      0.01000000	      0.01000000	      0.07952430	      0.01000000	      0.23157811	      0.01000000	      0.06096158	      0.01000000	      0.02401565	      0.01000000	      0.04558281	      0.01000000	      0.04199204	      0.01000000	      0.13539303	      0.01000000	      0.13186436	      0.01000000	      0.12962004	      0.01000000	      0.01000000	      0.09909456	      0.01000000	      0.01000000	      0.21847203	      0.01000000	      0.01000000	      0.01000000	      0.12306215	      0.01000000	      0.01000000	      0.05190346	      0.01000000	      0.05939429	      0.01000000	      0.04758840	      0.01000000	      0.05618553	      0.01000000	      0.05398843	      0.01000000	      0.04241102	      0.01000000	      0.01000000	      0.01000000	      0.01000000	      0.01000000	      0.01000000	      0.01000000	      0.01000000	      0.01000000	      0.04534204	      0.01000000	      0.01000000	      0.01000000	      0.05072310	      0.01000000	      0.05738398	      0.01000000	      0.03271112	      0.01000000	      0.01000000	      0.05259359	      0.01000000	      0.01000000	      0.07952430	      0.01000000	      0.23157811	      0.01000000	      0.06096158	      0.01000000	      0.02401565	      0.01000000	      0.04558281	      0.01000000	      0.04199204	      0.01000000	      0.13539303	      0.01000000	      0.13186436	      0.01000000	      0.12962004
      0.00073392	     20.00000000	      0.00000000	      0.00000000	      0.25000000	    -26.67222615	     -0.00002894	     -0.00004225	     -0.03599833	      0.61701111	      0.00000013	     92.99182728	    -18.06341514	     -3.63539316	     92.99937387	     92.99937387	     27.95185165	     -0.00708977	      0.00000000	     92.99185040	    -18.06358036	     -3.63496641	     92.99940320	     92.99940320	     27.95340570	     -0.00000000	      0.00000000	     -0.00973426	      0.00002703	      0.00004197	     89.99096398	     -0.00011642	     89.84109293	      0.14232873	      0.14199769	     -0.00000000	      0.00000000	     89.99246583	     -0.00011715	     89.83298514	      0.14233402	      0.14205482	      0.00000000	     -0.00000000	      0.00000000	      0.00000000	      0.00000000	     -0.00000000	     21.17516804	     -0.07830393	     -0.11441925	      0.00455931	      0.03029253	      0.00035901	    -22.24206646	     -1.18044193	      1.65168582	     -1.66080291	     -1.66080291	   -130.96040120	    -19.25235669	      0.00000000	    -22.18225337	     -1.63747418	      2.80957112	     -1.58056283	     -1.58056283	   -126.74213674	      0.00000000	      0.00000000	    -26.51844040	      0.07305814	      0.11368628	      5.65630697	     -0.24602216	      0.00000000	      0.68818829	     -0.10946374	     -0.00000000	      0.00000000	      5.66165851	     -0.25402036	     -0.14723974	      0.70266772	      0.04613431	      0.00000000	     -0.00000000	      0.01000000	      0.01000000	      0.09909420	      0.01000000	      0.01000000	      0.21846877	      0.01000000	      0.01000000	      0.01000000	      0.12306133	      0.01000000	      0.01000000	      0.05190553	      0.01000000	      0.05939707	      0.01000000	      0.04758836	      0.01000000	      0.05618521	      0.01000000	      0.05398688	      0.01000000	      0.04240968	      0.01000000	      0.01000000	      0.01000000	      0.01000000	      0.01000000	      0.01000000	      0.01000000	      0.01000000	      0.01000000	      0.04534149	      0.01000000	      0.01000000	      0.01000000	      0.05072225	      0.01000000	      0.05738338	      0.01000000	      0.03271081	      0.01000000	      0.01000000	      0.05259392	      0.01000000	      0.01000000	      0.07952391	      0.01000000	      0.23157631	      0.01000000	      0.06095779	      0.01000000	      0.02401564	      0.01000000	      0.04558717	      0.01000000	      0.04199191	      0.01000000	      0.13539296	      0.01000000	      0.13186430	      0.01000000	      0.12961998	      0.01000000	      0.01000000	      0.09909424	      0.01000000	      0.01000000	      0.21846880	      0.01000000	      0.01000000	      0.01000000	      0.12306134	      0.01000000	      0.01000000	      0.05190558	      0.01000000	      0.05939703	      0.01000000	      0.04758830	      0.01000000	      0.05618514	      0.01000000	      0.05398690	      0.01000000	      0.04240971	      0.01000000	      0.01000000	      0.01000000	      0.01000000	      0.01000000	      0.01000000	      0.01000000	      0.01000000	      0.01000000	      0.04534139	      0.01000000	      0.01000000	      0.01000000	      0.05072272	      0.01000000	      0.05738361	      0.01000000	      0.03271079	      0.01000000	      0.01000000	      0.05259392	      0.01000000	      0.01000000	      0.07952391	      0.01000000	      0.23157632	      0.01000000	      0.06095783	      0.01000000	      0.02401564	      0.01000000	      0.04558688	      0.01000000	      0.04199183	      0.01000000	      0.13539296	      0.01000000	      0.13186430	      0.01000000	      0.12961998
      0.00146785	     20.00000000	      0.00000000	      0.00000000	      0.25000000	    -26.64892584	     -0.00011379	     -0.00016632	     -0.03599331	      0.61704446	      0.00000052	     92.96733169	    -18.06471527	     -3.63358022	     92.99751073	     92.99751073	     27.80831677	     -0.02807444	     -0.00000000	     92.96741977	    -18.06537721	     -3.63189305	     92.99762721	     92.99762721	     27.81445892	      0.00000000	      0.00000000	     -0.03891326	      0.00010602	      0.00016528	     89.99718611	     -0.00038693	     89.84109293	      0.14308544	      0.14187671	     -0.00000000	      0.00000000	     89.99869388	     -0.00039650	     89.83282342	      0.14310672	      0.14210485	      0.00000000	     -0.00000000	      0.00000000	      0.00000000	      0.00000000	     -0.00000000	     42.31377516	     -0.15201420	     -0.22236509	      0.00912753	      0.06057269	      0.00070095	    -44.52108996	     -2.36280546	      3.28410839	     -3.44606508	     -3.44606508	   -259.68849831	    -37.77316356	     -0.00000000	    -44.40445367	     -3.25472808	      5.55037717	     -3.28963821	     -3.28963821	   -251.44459349	      0.00000000	      0.00000000	    -52.98814529	      0.14119815	      0.22103944	     11.29643423	     -0.49091214	     -0.00000000	      1.37332391	     -0.22054231	     -0.00000000	      0.00000000	     11.30722846	     -0.50704990	     -0.29321192	      1.40240575	      0.08963609	      0.00000000	     -0.00000000	      0.01000000	      0.01000000	      0.09909210	      0.01000000	      0.01000000	      0.21845698	      0.01000000	      0.01000000	      0.01000000	      0.12305660	      0.01000000	      0.01000000	      0.05192194	      0.01000000	      0.05942082	      0.01000000	      0.04758807	      0.01000000	      0.05618307	      0.01000000	      0.05397653	      0.01000000	      0.04240072	      0.01000000	      0.01000000	      0.01000000	      0.01000000	      0.01000000	      0.01000000	      0.01000000	      0.01000000	      0.01000000	      0.04533858	      0.01000000	      0.01000000	      0.01000000	      0.05071702	      0.01000000	      0.05737946	      0.01000000	      0.03270897	      0.01000000	      0.01000000	      0.05259612	      0.01000000	      0.01000000	      0.07952139	      0.01000000	      0.23156710	      0.01000000	      0.06093382	      0.01000000	      0.02401564	      0.01000000	      0.04562933	      0.01000000	      0.04199104	      0.01000000	      0.13539261	      0.01000000	      0.13186399	      0.01000000	      0.12961969	      0.01000000	      0.01000000	      0.09909243	      0.01000000	      0.01000000	      0.21845710	      0.01000000	      0.01000000	      0.01000000	      0.12305662	      0.01000000	      0.01000000	      0.05192258	      0.01000000	      0.05942023	      0.01000000	      0.04758757	      0.01000000	      0.05618257	      0.01000000	      0.05397663	      0.01000000	      0.04240092	      0.01000000	      0.01000000	      0.01000000	      0.01000000	      0.01000000	      0.01000000	      0.01000000	      0.01000000	      0.01000000	      0.04533799	      0.01000000	      0.01000000	      0.01000000	      0.05072037	      0.01000000	      0.05738119	      0.01000000	      0.03270876	      0.01000000	      0.01000000	      0.05259611	      0.01000000	      0.01000000	      0.07952139	      0.01000000	      0.23156713	      0.01000000	      0.06093419	      0.01000000	      0.02401564	      0.01000000	      0.04562551	      0.01000000	      0.04199043	      0.01000000	      0.13539263	      0.01000000	      0.13186401	      0.01000000	      0.12961971
      0.00220177	     20.00000000	      0.00000000	      0.00000000	      0.25000000	    -26.61012653	     -0.00025065	     -0.00036654	     -0.03598493	      0.61710003	      0.00000116	     92.92645887	    -18.06688360	     -3.63058149	     92.99426129	     92.99426129	     27.57148479	     -0.06228070	     -0.00000000	     92.92665232	    -18.06835070	     -3.62684502	     92.99451885	     92.99451885	     27.58507493	     -0.00000000	      0.00000000	     -0.08749854	      0.00023277	      0.00036440	     90.00754051	     -0.00083668	     89.84109293	      0.14434364	      0.14167350	     -0.00000000	      0.00000000	     90.00905820	     -0.00086109	     89.83255512	      0.14439161	      0.14218557	      0.00000000	     -0.00000000	      0.00000000	      0.00000000	      0.00000000	     -0.00000000	     63.40935118	     -0.21998383	     -0.32183808	      0.01370061	      0.09087161	      0.00101982	    -66.87338003	     -3.54604613	      4.88017773	     -5.45200168	     -5.45200168	   -385.12431986	    -55.27091628	     -0.00000000	    -66.70342503	     -4.84332818	      8.18706222	     -5.22493828	     -5.22493828	   -373.11475211	     -0.00000000	     -0.00000000	    -79.39984679	      0.20316739	      0.32020943	     16.91669186	     -0.73448853	     -0.00000000	      2.05478093	     -0.33349301	     -0.00000000	      0.00000000	     16.93292174	     -0.75876187	     -0.43771001	      2.09841043	      0.12983247	      0.00000000	     -0.00000000	      0.01000000	      0.01000000	      0.09908750	      0.01000000	      0.01000000	      0.21843398	      0.01000000	      0.01000000	      0.01000000	      0.12304592	      0.01000000	      0.01000000	      0.05198510	      0.01000000	      0.05950909	      0.01000000	      0.04758731	      0.01000000	      0.05617763	      0.01000000	      0.05394815	      0.01000000	      0.04237598	      0.01000000	      0.01000000	      0.01000000	      0.01000000	      0.01000000	      0.01000000	      0.01000000	      0.01000000	      0.01000000	      0.04533250	      0.01000000	      0.01000000	      0.01000000	      0.05070428	      0.01000000	      0.05736953	      0.01000000	      0.03270464	      0.01000000	      0.01000000	      0.05260178	      0.01000000	      0.01000000	      0.07951520	      0.01000000	      0.23154825	      0.01000000	      0.06087541	      0.01000000	      0.02401564	      0.01000000	      0.04575492	      0.01000000	      0.04198883	      0.01000000	      0.13539188	      0.01000000	      0.13186333	      0.01000000	      0.12961909	      0.01000000	      0.01000000	      0.09908844	      0.01000000	      0.01000000	      0.21843430	      0.01000000	      0.01000000	      0.01000000	      0.12304597	      0.01000000	      0.01000000	      0.05198816	      0.01000000	      0.05950658	      0.01000000	      0.04758569	      0.01000000	      0.05617601	      0.01000000	      0.05394852	      0.01000000	      0.04237675	      0.01000000	      0.01000000	      0.01000000	      0.01000000	      0.01000000	      0.01000000	      0.01000000	      0.01000000	      0.01000000	      0.04533088	      0.01000000	      0.01000000	      0.01000000	      0.05071476	      0.01000000	      0.05737512	      0.01000000	      0.03270401	      0.01000000	      0.01000000	      0.05260175	      0.01000000	      0.01000000	      0.07951519	      0.01000000	      0.23154833	      0.01000000	      0.06087653	      0.01000000	      0.02401564	      0.01000000	      0.04574270	      0.01000000	      0.04198688	      0.01000000	      0.13539194	      0.01000000	      0.13186337	      0.01000000	      0.12961913
